# xmcd
#
# Track frame offsets: 
#        150
#        15651
#        29845
#        43722
#        58837
#        81894
#        102182
#        121070
#        136074
#        152667
#        172827
#        187101
#        205849
#        219222
#        229587
#        251526
#        269461
#        279448
#        297412
#        317376
#        338326
#
# Disc length: 4699 seconds
#
# Revision: 1
# Processed by: cddbd v1.5.2PL0 Copyright (c) Steve Scherf et al.
# Submitted via: ExactAudioCopy v0.99pb3
#
DISCID=21125915
DTITLE=Секрет - Легенды Русского Рока
DYEAR=2000
DGENRE=Rock
TTITLE0=Я люблю буги-вуги
TTITLE1=Твой папа был прав
TTITLE2=Привет
TTITLE3=Блюз бродячих собак
TTITLE4=Ленинградское время
TTITLE5=(Мой приятель) Беспечный ездок
TTITLE6=Сидя на крыше
TTITLE7=Дай мне
TTITLE8=Песня гномов
TTITLE9=Иди домой
TTITLE10=Кончайте, папа
TTITLE11=Странные дни
TTITLE12=Убегай, крошка
TTITLE13=Мажорный рок-н-ролл
TTITLE14=Арина балерина
TTITLE15=Всё "О.К."
TTITLE16=Она не понимает
TTITLE17=Твои шаги
TTITLE18=Отказали тормоза
TTITLE19=В жарких странах
TTITLE20=Возьми меня
EXTD=
EXTT0=
EXTT1=
EXTT2=
EXTT3=
EXTT4=
EXTT5=
EXTT6=
EXTT7=
EXTT8=
EXTT9=
EXTT10=
EXTT11=
EXTT12=
EXTT13=
EXTT14=
EXTT15=
EXTT16=
EXTT17=
EXTT18=
EXTT19=
EXTT20=
PLAYORDER=
